<svg width="1000" height="160" viewBox="0 0 1000 160" fill="none" xmlns="http://www.w3.org/2000/svg">
<path d="M92.424 53.8265C86.1692 50.1778 79.9144 46.5292 73.9202 42.8805C70.2716 40.7956 68.7078 37.147 69.2291 32.9771C69.7503 29.3284 72.3565 26.4617 76.0051 25.4192C78.8719 24.6373 81.2175 25.1586 83.8236 26.7223C94.2483 32.9771 104.934 38.9713 115.619 44.9655C119.268 47.0504 121.353 50.1778 121.092 54.3477C120.831 58.5176 118.486 61.1238 114.837 62.6875C114.576 62.9481 114.316 62.9481 114.055 63.2087C110.928 63.4693 108.061 62.6875 105.194 60.8631C100.764 58.5176 96.5939 56.172 92.424 53.8265Z" fill="#0F9D58"/>
<path d="M31.7002 53.5659C37.955 57.2145 43.9492 60.6025 50.204 64.2512C56.1982 67.8998 56.9801 75.4577 51.7677 79.8882C48.9009 82.4944 44.731 83.0156 41.0824 81.1913C29.8759 74.6759 18.6693 68.421 7.46278 61.645C4.07475 59.8207 2.77166 56.4327 3.03228 52.784C3.55352 48.6141 5.89907 46.008 9.80833 44.4443C13.457 43.923 16.3238 44.9655 19.4512 46.7898C23.3604 49.1354 27.5303 51.4809 31.7002 53.5659Z" fill="#4285F4"/>
<path d="M31.7001 53.5658C27.5302 51.2203 23.6209 49.1353 19.4511 46.5292C16.3237 44.9655 13.4569 43.923 9.80823 44.4442C20.2329 38.45 30.6576 32.1952 41.3429 26.201C45.7734 23.5948 51.507 25.4192 53.8525 29.8497C56.4587 34.2801 54.895 40.0137 50.4645 42.6199C44.2097 46.5292 37.9549 50.1778 31.7001 53.5658Z" fill="#EA4335"/>
<path d="M92.4239 53.8265C96.5938 56.1721 100.764 58.5176 104.934 60.8632C107.8 62.4269 110.667 63.4693 113.795 63.2087C108.061 66.5968 102.327 69.9848 96.5938 73.3728C92.4239 75.979 87.9934 78.3245 83.8236 80.6701C78.8718 83.5369 73.1382 82.2338 70.2715 77.8033C67.4047 73.1122 68.9684 67.3786 74.1807 64.2512C80.1749 60.8632 86.1691 57.2145 92.4239 53.8265Z" fill="#FBBC05"/>
<path d="M158.36 72.8521C154.972 71.0278 152.365 68.161 150.28 64.773C148.196 61.385 147.414 57.4757 147.414 53.3059C147.414 49.136 148.456 45.4873 150.28 41.8387C152.365 38.4507 154.972 35.8445 158.36 33.7596C161.748 31.9352 165.396 30.8928 169.566 30.8928C172.694 30.8928 175.56 31.414 178.427 32.4565C181.294 33.4989 183.379 35.0626 185.203 37.1476L181.555 40.7962C180.251 39.2325 178.427 37.9294 176.342 36.887C174.257 36.1051 171.912 35.5839 169.566 35.5839C166.699 35.5839 163.833 36.3657 161.226 37.6688C158.62 39.2325 156.535 41.0568 154.972 43.9236C153.408 46.5298 152.626 49.6572 152.626 53.0452C152.626 56.4333 153.408 59.5607 154.972 62.1668C156.535 64.773 158.62 66.858 161.226 68.4217C163.833 69.9854 166.699 70.5066 169.566 70.5066C172.433 70.5066 174.779 69.9854 176.863 69.2035C178.688 68.4217 180.512 67.1186 181.815 65.5549C182.858 64.5124 183.639 63.2093 184.421 61.385C184.943 59.8213 185.464 57.997 185.464 56.1726H169.566V51.4815H190.155C190.416 52.524 190.416 53.5665 190.416 54.6089C190.416 57.2151 189.894 59.8213 189.112 62.1668C188.331 64.773 187.028 66.858 185.203 68.6823C181.294 72.8522 175.821 75.1977 169.566 75.1977C165.396 75.7189 161.748 74.9371 158.36 72.8521Z" fill="#656C73"/>
<path d="M201.622 73.6334C199.277 72.3303 197.452 70.2454 196.149 67.8999C194.846 65.5543 194.325 62.6875 194.325 59.8207C194.325 56.9539 194.846 54.0871 196.149 51.7416C197.452 49.396 199.277 47.3111 201.622 46.008C203.968 44.7049 206.574 43.9231 209.441 43.9231C212.307 43.9231 214.914 44.7049 217.259 46.008C219.605 47.3111 221.429 49.396 222.732 51.7416C224.035 54.0871 224.556 56.9539 224.556 59.8207C224.556 62.6875 224.035 65.5543 222.732 67.8999C221.429 70.2454 219.605 72.3303 217.259 73.6334C214.914 74.9365 212.307 75.7184 209.441 75.7184C206.574 75.7184 203.968 75.1971 201.622 73.6334ZM214.392 69.7242C215.956 68.6817 217.259 67.3786 218.041 65.8149C219.083 64.2512 219.344 62.1663 219.344 59.8207C219.344 57.4752 218.823 55.6508 218.041 53.8265C216.999 52.2628 215.956 50.6991 214.392 49.9173C212.829 48.8748 211.265 48.6142 209.441 48.6142C207.616 48.6142 206.053 49.1354 204.489 49.9173C202.925 50.9597 201.622 52.2628 200.84 53.8265C199.798 55.6508 199.537 57.4752 199.537 59.8207C199.537 62.1663 200.058 63.9906 200.84 65.8149C201.883 67.6392 202.925 68.9423 204.489 69.7242C206.053 70.7666 207.616 71.0273 209.441 71.0273C211.265 71.2879 213.089 70.7666 214.392 69.7242Z" fill="#656C73"/>
<path d="M235.502 73.6334C233.157 72.3303 231.332 70.2454 230.029 67.8999C228.726 65.5543 228.205 62.6875 228.205 59.8207C228.205 56.9539 228.726 54.0871 230.029 51.7416C231.332 49.396 233.157 47.3111 235.502 46.008C237.848 44.7049 240.454 43.9231 243.321 43.9231C246.188 43.9231 248.794 44.7049 251.139 46.008C253.485 47.3111 255.309 49.396 256.612 51.7416C257.915 54.0871 258.437 56.9539 258.437 59.8207C258.437 62.6875 257.915 65.5543 256.612 67.8999C255.309 70.2454 253.485 72.3303 251.139 73.6334C248.794 74.9365 246.188 75.7184 243.321 75.7184C240.454 75.7184 237.848 75.1971 235.502 73.6334ZM248.533 69.7242C250.097 68.6817 251.4 67.3786 252.182 65.8149C253.224 64.2512 253.485 62.1663 253.485 59.8207C253.485 57.4752 252.964 55.6508 252.182 53.8265C251.139 52.2628 250.097 50.6991 248.533 49.9173C246.969 48.8748 245.406 48.6142 243.581 48.6142C241.757 48.6142 240.193 49.1354 238.63 49.9173C237.066 50.9597 235.763 52.2628 234.981 53.8265C233.939 55.6508 233.678 57.4752 233.678 59.8207C233.678 62.1663 234.199 63.9906 234.981 65.8149C236.023 67.6392 237.066 68.9423 238.63 69.7242C240.193 70.7666 241.757 71.0273 243.581 71.0273C245.145 71.2879 246.969 70.7666 248.533 69.7242Z" fill="#656C73"/>
<path d="M268.08 86.143C265.734 84.3186 264.17 82.4943 263.389 80.1488L268.08 78.0638C268.601 79.8881 269.643 81.1912 271.207 82.2337C272.771 83.2762 274.595 83.7974 276.68 83.7974C279.807 83.7974 282.153 82.7549 283.977 80.9306C285.802 79.1063 286.583 76.5001 286.583 73.3727V70.2453H286.323C285.28 71.809 283.977 73.1121 282.153 73.8939C280.329 74.9364 278.244 75.4576 276.159 75.4576C273.553 75.4576 271.207 74.6758 269.122 73.3727C267.037 72.0696 265.213 70.2453 263.91 67.6391C262.607 65.2936 262.085 62.4268 262.085 59.56C262.085 56.4326 262.607 53.8264 263.91 51.4809C265.213 49.1353 266.777 47.311 269.122 45.7473C271.207 44.4442 273.553 43.6623 276.159 43.6623C278.504 43.6623 280.589 44.1836 282.153 45.226C283.977 46.2685 285.28 47.5716 286.323 48.8747H286.583V44.4442H291.535V72.8515C291.535 76.2395 291.014 78.8457 289.711 81.1912C288.408 83.5368 286.583 85.1005 284.499 86.143C282.414 87.1854 279.807 87.7067 276.941 87.7067C273.292 88.7491 270.165 87.9673 268.08 86.143ZM281.632 69.7241C283.195 68.9422 284.238 67.6391 285.28 65.8148C286.062 64.2511 286.583 62.1662 286.583 59.8206C286.583 57.4751 286.062 55.6507 285.28 53.8264C284.499 52.0021 283.195 50.9596 281.632 49.9172C280.068 49.1353 278.504 48.6141 276.68 48.6141C274.856 48.6141 273.292 49.1353 271.728 49.9172C270.165 50.699 269.122 52.0021 268.08 53.8264C267.298 55.3901 266.777 57.4751 266.777 59.8206C266.777 62.1662 267.298 63.9905 268.08 65.8148C268.861 67.3785 270.165 68.6816 271.728 69.7241C273.292 70.5059 274.856 71.0271 276.68 71.0271C278.765 71.2878 280.329 70.7665 281.632 69.7241Z" fill="#656C73"/>
<path d="M298.312 31.9346H303.264V74.6758H298.312V31.9346Z" fill="#656C73"/>
<path d="M315.511 73.6334C313.166 72.3303 311.602 70.506 310.299 67.8998C308.996 65.5542 308.475 62.6874 308.475 59.8206C308.475 56.9539 308.996 54.3477 310.299 52.0021C311.602 49.6566 313.166 47.5716 315.511 46.2686C317.596 44.9655 320.202 44.1836 323.069 44.1836C325.936 44.1836 328.542 44.7048 330.627 46.0079C332.712 47.311 334.536 49.1353 335.579 51.4809C336.621 53.8265 337.403 56.4326 337.403 59.56C337.403 60.0813 337.403 60.6025 337.403 60.8631H313.948C313.948 63.2087 314.469 65.033 315.511 66.5967C316.554 68.1604 317.857 69.2029 319.16 69.9847C320.724 70.7666 322.287 71.0272 323.851 71.0272C327.5 71.0272 330.366 69.2029 332.451 65.5542L336.882 67.6392C335.579 69.9847 333.754 72.0697 331.67 73.3727C329.324 74.9365 326.718 75.4577 323.59 75.4577C320.202 75.7183 317.596 75.1971 315.511 73.6334ZM331.67 56.6932C331.67 55.3902 331.148 54.3477 330.627 53.0446C330.106 51.7415 329.063 50.9597 327.76 49.9172C326.457 49.1353 324.633 48.6141 322.548 48.6141C320.202 48.6141 318.378 49.396 316.814 50.699C315.251 52.2627 314.208 54.0871 313.687 56.4326H331.67V56.6932Z" fill="#656C73"/>
<path d="M356.429 31.9346H369.46C373.891 31.9346 377.539 32.7164 380.927 34.5407C384.315 36.3651 386.661 38.9712 388.485 42.0986C390.309 45.2261 391.091 49.1353 391.091 53.3052C391.091 57.4751 390.309 61.1237 388.485 64.5117C386.661 67.6391 384.315 70.2453 380.927 72.0696C377.539 73.894 373.891 74.6758 369.46 74.6758H356.429V31.9346ZM369.46 69.9847C374.412 69.9847 378.582 68.421 381.448 65.5542C384.315 62.6874 385.879 58.5175 385.879 53.3052C385.879 48.0928 384.315 43.923 381.448 41.0562C378.582 38.1894 374.412 36.6257 369.46 36.6257H361.642V69.7241H369.46V69.9847Z" fill="#656C73"/>
<path d="M402.558 73.6334C400.213 72.3303 398.649 70.506 397.346 67.8998C396.043 65.5542 395.522 62.6874 395.522 59.8206C395.522 56.9539 396.043 54.3477 397.346 52.0021C398.649 49.6566 400.213 47.5716 402.558 46.2686C404.643 44.9655 407.249 44.1836 410.116 44.1836C412.983 44.1836 415.589 44.7048 417.674 46.0079C419.759 47.311 421.583 49.1353 422.626 51.4809C423.668 53.8265 424.45 56.4326 424.45 59.56C424.45 60.0813 424.45 60.6025 424.45 60.8631H400.995C400.995 63.2087 401.516 65.033 402.558 66.5967C403.601 68.1604 404.904 69.2029 406.207 69.9847C407.771 70.7666 409.334 71.0272 410.898 71.0272C414.547 71.0272 417.414 69.2029 419.499 65.5542L423.929 67.6392C422.626 69.9847 420.802 72.0697 418.717 73.3727C416.632 74.6758 413.765 75.4577 410.638 75.4577C407.51 75.7183 404.904 75.1971 402.558 73.6334ZM418.717 56.6932C418.717 55.3902 418.195 54.3477 417.674 53.0446C417.153 51.7415 416.11 50.9597 414.807 49.9172C413.504 49.1353 411.68 48.6141 409.595 48.6141C407.249 48.6141 405.425 49.396 403.861 50.699C402.298 52.2627 401.255 54.0871 400.734 56.4326H418.717V56.6932Z" fill="#656C73"/>
<path d="M425.493 45.2262H430.966L440.087 68.9423L449.209 45.2262H454.682L442.433 74.9365H437.221L425.493 45.2262Z" fill="#656C73"/>
<path d="M464.063 73.6334C461.718 72.3303 460.154 70.506 458.851 67.8998C457.548 65.5542 457.026 62.6874 457.026 59.8206C457.026 56.9539 457.548 54.3477 458.851 52.0021C460.154 49.6566 461.718 47.5716 464.063 46.2686C466.148 44.9655 468.754 44.1836 471.621 44.1836C474.488 44.1836 477.094 44.7048 479.179 46.0079C481.264 47.311 483.088 49.1353 484.131 51.4809C485.173 53.8265 485.955 56.4326 485.955 59.56C485.955 60.0813 485.955 60.6025 485.955 60.8631H462.499C462.499 63.2087 463.021 65.033 464.063 66.5967C465.106 68.1604 466.409 69.2029 467.712 69.9847C469.276 70.7666 470.839 71.0272 472.403 71.0272C476.052 71.0272 478.918 69.2029 481.003 65.5542L485.434 67.6392C484.131 69.9847 482.306 72.0697 480.221 73.3727C477.876 74.9365 475.27 75.4577 472.142 75.4577C468.754 75.7183 466.148 75.1971 464.063 73.6334ZM480.221 56.6932C480.221 55.3902 479.7 54.3477 479.179 53.0446C478.658 51.7415 477.615 50.9597 476.312 49.9172C475.009 49.1353 473.185 48.6141 471.1 48.6141C468.754 48.6141 466.93 49.396 465.366 50.699C463.803 52.2627 462.76 54.0871 462.239 56.4326H480.221V56.6932Z" fill="#656C73"/>
<path d="M490.647 31.9346H495.86V74.6758H490.647V31.9346Z" fill="#656C73"/>
<path d="M508.11 73.6334C505.764 72.3303 503.94 70.2454 502.637 67.8999C501.333 65.5543 500.812 62.6875 500.812 59.8207C500.812 56.9539 501.333 54.0871 502.637 51.7416C503.94 49.396 505.764 47.3111 508.11 46.008C510.455 44.7049 513.061 43.9231 515.928 43.9231C518.795 43.9231 521.401 44.7049 523.747 46.008C526.092 47.3111 527.916 49.396 529.22 51.7416C530.523 54.0871 531.044 56.9539 531.044 59.8207C531.044 62.6875 530.523 65.5543 529.22 67.8999C527.916 70.2454 526.092 72.3303 523.747 73.6334C521.401 74.9365 518.795 75.7184 515.928 75.7184C513.061 75.7184 510.194 75.1971 508.11 73.6334ZM520.88 69.7242C522.443 68.6817 523.747 67.3786 524.528 65.8149C525.571 64.2512 525.832 62.1663 525.832 59.8207C525.832 57.4752 525.31 55.6508 524.528 53.8265C523.486 52.2628 522.443 50.6991 520.88 49.9173C519.316 48.8748 517.752 48.6142 515.928 48.6142C514.104 48.6142 512.54 49.1354 510.976 49.9173C509.413 50.9597 508.11 52.2628 507.328 53.8265C506.285 55.6508 506.025 57.4752 506.025 59.8207C506.025 62.1663 506.546 63.9906 507.328 65.8149C508.37 67.6392 509.413 68.9423 510.976 69.7242C512.54 70.7666 514.104 71.0273 515.928 71.0273C517.752 71.2879 519.316 70.7666 520.88 69.7242Z" fill="#656C73"/>
<path d="M535.734 45.2261H540.685V49.6566H540.946C541.988 48.0929 543.292 46.7898 545.116 45.7473C546.94 44.7048 549.025 44.1836 551.371 44.1836C553.977 44.1836 556.322 44.9655 558.407 46.2686C560.492 47.5716 562.317 49.396 563.62 52.0021C564.923 54.3477 565.444 56.9539 565.444 60.0813C565.444 62.9481 564.923 65.8148 563.62 68.1604C562.317 70.506 560.753 72.3303 558.407 73.894C556.322 75.1971 553.977 75.9789 551.371 75.9789C549.025 75.9789 546.94 75.4577 545.116 74.4152C543.292 73.3728 541.988 72.0697 540.946 70.506H540.685L540.946 74.6758V87.7067H535.994V45.2261H535.734ZM555.28 69.7241C556.844 68.6816 557.886 67.3785 558.929 65.8148C559.71 64.2511 560.232 62.1662 560.232 59.8206C560.232 57.4751 559.71 55.6508 558.929 53.8265C558.147 52.2627 556.844 50.699 555.28 49.9172C553.716 48.8747 552.153 48.6141 550.328 48.6141C548.504 48.6141 546.94 49.1353 545.377 49.9172C543.813 50.699 542.77 52.0021 541.728 53.8265C540.946 55.3902 540.425 57.4751 540.425 59.8206C540.425 62.1662 540.946 63.9905 541.728 65.8148C542.51 67.6392 543.813 68.9423 545.377 69.7241C546.94 70.506 548.504 71.0272 550.328 71.0272C552.153 71.0272 553.716 70.7666 555.28 69.7241Z" fill="#656C73"/>
<path d="M577.172 73.6334C574.827 72.3303 573.263 70.506 571.96 67.8998C570.657 65.5542 570.135 62.6874 570.135 59.8206C570.135 56.9539 570.657 54.3477 571.96 52.0021C573.263 49.6566 574.827 47.5716 577.172 46.2686C579.257 44.9655 581.863 44.1836 584.73 44.1836C587.597 44.1836 590.203 44.7048 592.288 46.0079C594.373 47.311 596.197 49.1353 597.24 51.4809C598.282 53.8265 599.064 56.4326 599.064 59.56C599.064 60.0813 599.064 60.6025 599.064 60.8631H575.608C575.608 63.2087 576.13 65.033 577.172 66.5967C578.215 68.1604 579.518 69.2029 580.821 69.9847C582.384 70.7666 583.948 71.0272 585.512 71.0272C589.161 71.0272 592.027 69.2029 594.112 65.5542L598.543 67.6392C597.24 69.9847 595.415 72.0697 593.33 73.3727C590.985 74.9365 588.379 75.4577 585.251 75.4577C581.863 75.7183 579.257 75.1971 577.172 73.6334ZM593.33 56.6932C593.33 55.3902 592.809 54.3477 592.288 53.0446C591.767 51.7415 590.724 50.9597 589.421 49.9172C588.118 49.1353 586.294 48.6141 584.209 48.6141C581.863 48.6141 580.039 49.396 578.475 50.699C576.912 52.2627 575.869 54.0871 575.348 56.4326H593.33V56.6932Z" fill="#656C73"/>
<path d="M603.756 45.226H608.708V50.1778H608.968C609.49 48.614 610.793 47.0503 612.356 46.0079C614.181 44.9654 615.744 44.4442 617.569 44.4442C618.872 44.4442 619.914 44.7048 620.957 44.9654V50.4384C619.914 49.9171 618.611 49.6565 616.787 49.6565C615.484 49.6565 614.181 50.1777 612.878 50.9596C611.575 51.7415 610.793 52.7839 610.011 54.3476C609.229 55.6507 608.968 57.2144 608.968 58.7781V75.197H603.756V45.226Z" fill="#656C73"/>
<path d="M643.109 74.4152C641.024 73.6333 639.2 72.3302 637.896 70.5059C636.333 68.6816 635.29 66.5967 634.508 64.2511L639.46 62.1662C640.242 64.7723 641.284 66.8573 643.109 68.421C644.933 69.9847 647.018 70.7665 649.624 70.7665C652.23 70.7665 654.315 69.9847 655.879 68.6816C657.703 67.3785 658.485 65.5542 658.485 63.2086C658.485 61.1237 657.703 59.56 656.4 58.2569C654.837 56.9538 652.491 55.6507 649.364 54.6083L646.757 53.5658C643.63 52.5233 641.284 50.9596 639.46 49.3959C637.636 47.5716 636.593 45.226 636.593 42.0986C636.593 40.0137 637.115 38.1894 638.157 36.365C639.2 34.5407 640.763 33.2376 642.848 32.1952C644.933 31.1527 647.018 30.6315 649.624 30.6315C651.97 30.6315 654.315 31.1527 656.14 31.9346C657.964 32.977 659.528 34.0195 660.57 35.3226C661.613 36.6257 662.394 37.9288 662.916 39.2318L658.225 41.3168C657.703 39.7531 656.922 38.45 655.358 37.4075C654.055 36.1044 652.23 35.5832 649.885 35.5832C647.8 35.5832 645.715 36.1044 644.151 37.4075C642.588 38.7106 641.806 40.2743 641.806 42.0986C641.806 43.6623 642.588 45.226 643.891 46.2685C645.194 47.311 647.279 48.3534 649.885 49.1353L652.752 50.1778C656.4 51.4809 659.267 53.0446 661.352 55.1295C663.437 57.2144 664.479 59.8206 664.479 63.2086C664.479 66.0754 663.698 68.1604 662.394 70.2453C661.091 72.0696 659.267 73.3727 656.921 74.4152C654.837 75.197 652.491 75.7183 650.145 75.7183C647.279 75.7183 645.194 75.4577 643.109 74.4152Z" fill="#656C73"/>
<path d="M675.947 75.1971C674.904 74.6759 674.122 74.1546 673.34 73.6334C672.559 72.8515 672.037 72.0697 671.516 71.0272C671.255 69.9847 670.995 68.6817 670.995 67.3786V49.9172H665.782V45.2261H670.995V36.3651H675.947V45.2261H683.244V49.9172H675.947V66.0755C675.947 67.8998 676.207 68.9423 676.989 69.9847C677.771 70.7666 678.813 71.2878 680.116 71.2878C681.419 71.2878 682.462 71.0272 683.244 70.506V75.4577C682.723 75.7183 681.941 75.9789 681.419 75.9789C680.898 75.9789 680.116 76.2396 679.074 76.2396C678.031 75.7183 676.989 75.4577 675.947 75.1971Z" fill="#656C73"/>
<path d="M691.324 72.5908C689.499 70.5058 688.457 67.639 688.457 63.7298V44.9653H693.409V62.6873C693.409 68.1603 695.754 70.7665 700.706 70.7665C702.27 70.7665 703.833 70.2452 705.136 69.4634C706.439 68.4209 707.482 67.3784 708.003 65.8147C708.524 64.251 709.046 62.6873 709.046 61.1236V44.7047H713.997V74.4151H709.306V69.9846C708.524 71.5483 707.221 72.8514 705.397 73.8939C703.573 74.9363 701.748 75.4576 699.663 75.4576C696.015 75.7182 693.148 74.6757 691.324 72.5908Z" fill="#656C73"/>
<path d="M726.246 73.6332C724.161 72.3302 722.336 70.5058 721.033 67.8997C719.73 65.5541 719.209 62.6873 719.209 59.8205C719.209 56.9537 719.73 54.0869 721.033 51.7414C722.336 49.3958 723.9 47.5715 726.246 46.0078C728.331 44.7047 730.676 43.9229 733.282 43.9229C735.628 43.9229 737.713 44.4441 739.537 45.4866C741.362 46.529 742.665 47.8321 743.707 49.3958H743.968L743.707 45.226V31.6739H748.659V74.4151H743.968V69.9846H743.707C742.665 71.5483 741.362 72.8514 739.537 73.8939C737.713 74.9363 735.628 75.4576 733.282 75.4576C730.676 75.7182 728.331 75.1969 726.246 73.6332ZM739.016 69.724C740.58 68.9421 741.622 67.639 742.665 65.8147C743.446 63.9904 743.968 62.1661 743.968 59.8205C743.968 57.475 743.446 55.6507 742.665 53.8263C741.883 52.002 740.58 50.9595 739.016 49.9171C737.452 49.1352 735.889 48.614 734.064 48.614C732.24 48.614 730.676 49.1352 729.112 49.9171C727.549 50.9595 726.506 52.2626 725.464 53.8263C724.682 55.6507 724.161 57.475 724.161 59.8205C724.161 62.1661 724.682 63.9904 725.464 65.8147C726.246 67.639 727.549 68.9421 729.112 69.724C730.676 70.7664 732.24 71.0271 734.064 71.0271C735.889 71.2877 737.452 70.7664 739.016 69.724Z" fill="#656C73"/>
<path d="M760.907 73.6334C758.562 72.3303 756.998 70.506 755.695 67.8998C754.392 65.5542 753.871 62.6874 753.871 59.8206C753.871 56.9539 754.392 54.3477 755.695 52.0021C756.998 49.6566 758.562 47.5716 760.907 46.2686C762.992 44.9655 765.598 44.1836 768.465 44.1836C771.332 44.1836 773.938 44.7048 776.023 46.0079C778.108 47.311 779.932 49.1353 780.975 51.4809C782.017 53.8265 782.799 56.4326 782.799 59.56C782.799 60.0813 782.799 60.6025 782.799 60.8631H759.344C759.344 63.2087 759.865 65.033 760.907 66.5967C761.95 68.1604 763.253 69.2029 764.556 69.9847C766.12 70.7666 767.683 71.0272 769.247 71.0272C772.896 71.0272 775.762 69.2029 777.847 65.5542L782.278 67.6392C780.975 69.9847 779.15 72.0697 777.066 73.3727C774.72 74.9365 772.114 75.4577 768.986 75.4577C765.598 75.7183 762.992 75.1971 760.907 73.6334ZM777.066 56.6932C777.066 55.3902 776.544 54.3477 776.023 53.0446C775.502 51.7415 774.459 50.9597 773.156 49.9172C771.853 49.1353 770.029 48.6141 767.944 48.6141C765.598 48.6141 763.774 49.396 762.21 50.699C760.647 52.2627 759.604 54.0871 759.083 56.4326H777.066V56.6932Z" fill="#656C73"/>
<path d="M787.49 45.2261H792.441V49.6566H792.702C793.484 48.0929 794.787 46.7898 796.611 45.7473C798.436 44.7048 800.26 44.1836 802.345 44.1836C805.993 44.1836 808.6 45.2261 810.685 47.311C812.509 49.396 813.551 52.2627 813.551 55.9114V74.6758H808.339V56.6932C808.339 51.4809 805.733 48.6141 800.781 48.6141C799.217 48.6141 797.654 49.1353 796.351 49.9172C795.048 50.9597 794.005 52.0021 793.484 53.5658C792.702 55.1295 792.441 56.6932 792.441 58.2569V74.6758H787.229V45.2261H787.49Z" fill="#656C73"/>
<path d="M826.583 75.1971C825.54 74.6759 824.758 74.1546 823.977 73.6334C823.195 72.8515 822.673 72.0697 822.152 71.0272C821.892 69.9847 821.631 68.6817 821.631 67.3786V49.9172H816.419V45.2261H821.631V36.3651H826.583V45.2261H833.88V49.9172H826.583V66.0755C826.583 67.8998 826.843 68.9423 827.625 69.9847C828.407 70.7666 829.45 71.2878 830.753 71.2878C832.056 71.2878 833.098 71.0272 833.88 70.506V75.4577C833.359 75.7183 832.577 75.9789 832.056 75.9789C831.535 75.9789 830.753 76.2396 829.71 76.2396C828.928 75.7183 827.625 75.4577 826.583 75.1971Z" fill="#656C73"/>
<path d="M861.245 72.8516C857.857 71.0273 855.251 68.1605 853.166 64.7724C851.342 61.3844 850.299 57.4752 850.299 53.3053C850.299 49.1354 851.342 45.4868 853.166 41.8381C854.99 38.4501 857.857 35.8439 861.245 33.759C864.633 31.9347 868.282 30.8922 872.452 30.8922C875.579 30.8922 878.707 31.4134 881.313 32.7165C883.919 34.0196 886.265 35.5833 888.089 37.9289L884.44 41.5775C882.876 39.7532 881.052 38.1895 878.967 37.147C876.882 36.1045 874.797 35.8439 872.191 35.8439C869.064 35.8439 866.197 36.6258 863.591 37.9289C860.985 39.4926 858.9 41.3169 857.336 44.1837C855.772 46.7898 854.99 49.9173 854.99 53.3053C854.99 56.6933 855.772 59.8207 857.336 62.4269C858.9 65.0331 860.985 67.118 863.591 68.6817C866.197 70.2454 869.064 70.7666 872.191 70.7666C877.403 70.7666 881.834 68.6817 885.483 64.2512L889.131 67.8999C887.307 70.2454 884.701 72.0697 881.834 73.3728C878.967 74.6759 875.84 75.4578 872.191 75.4578C868.282 75.7184 864.633 74.9365 861.245 72.8516Z" fill="#656C73"/>
<path d="M894.344 31.9346H899.296V74.6758H894.344V31.9346Z" fill="#656C73"/>
<path d="M908.939 72.5908C907.115 70.5058 906.072 67.639 906.072 63.7298V44.9653H911.024V62.6873C911.024 68.1603 913.37 70.7665 918.321 70.7665C919.885 70.7665 921.449 70.2452 922.752 69.4634C924.055 68.4209 925.097 67.3784 925.619 65.8147C926.4 64.251 926.661 62.6873 926.661 61.1236V44.7047H931.613V74.4151H926.922V69.9846H926.661C925.879 71.5483 924.576 72.8514 922.752 73.8939C920.927 74.9363 919.103 75.4576 917.018 75.4576C913.63 75.7182 910.763 74.6757 908.939 72.5908Z" fill="#656C73"/>
<path d="M948.032 74.1546C946.207 73.1121 944.904 71.809 943.862 70.2453H943.601V74.6758H938.649V31.9346H943.601V45.4867L943.34 49.6565H943.601C944.644 48.0928 945.947 46.7898 947.771 45.7473C949.595 44.7048 951.68 44.1836 954.026 44.1836C956.632 44.1836 958.978 44.9654 961.063 46.2685C963.147 47.5716 964.972 49.3959 966.275 52.0021C967.578 54.3477 968.099 56.9538 968.099 60.0812C968.099 62.948 967.578 65.8148 966.275 68.1604C964.972 70.5059 963.408 72.3303 961.063 73.894C958.978 75.197 956.632 75.9789 954.026 75.9789C951.941 75.7183 949.856 75.197 948.032 74.1546ZM958.196 69.7241C959.759 68.6816 960.802 67.3785 961.844 65.8148C962.626 64.2511 963.147 62.1662 963.147 59.8206C963.147 57.4751 962.626 55.6507 961.844 53.8264C961.062 52.2627 959.759 50.699 958.196 49.9172C956.632 49.1353 955.068 48.6141 953.244 48.6141C951.42 48.6141 949.856 49.1353 948.292 49.9172C946.729 50.699 945.686 52.0021 944.644 53.8264C943.862 55.3901 943.34 57.4751 943.34 59.8206C943.34 62.1662 943.862 63.9905 944.644 65.8148C945.425 67.6391 946.729 68.9422 948.292 69.7241C949.856 70.5059 951.42 71.0272 953.244 71.0272C955.068 71.2878 956.893 70.7665 958.196 69.7241Z" fill="#656C73"/>
<path d="M975.656 73.3728C973.571 71.8091 972.007 69.7242 970.964 67.3786L975.395 65.2937C976.177 67.118 977.219 68.6817 978.783 69.7242C980.347 70.7666 981.91 71.2879 983.474 71.2879C985.298 71.2879 986.862 70.7666 988.165 69.9848C989.468 69.2029 989.989 68.1605 989.989 66.8574C989.989 65.8149 989.468 64.7725 988.686 63.9906C987.644 63.2087 986.08 62.6875 983.995 61.9057L979.825 60.8632C977.48 60.342 975.655 59.2995 974.092 57.9964C972.528 56.6933 971.746 54.869 971.746 52.5234C971.746 50.6991 972.267 49.1354 973.31 47.8323C974.352 46.5292 975.655 45.4868 977.48 44.9655C979.304 44.1837 981.128 43.9231 983.213 43.9231C985.82 43.9231 988.165 44.4443 990.25 45.7474C992.335 47.0505 993.899 48.6142 994.681 50.6991L990.25 52.5234C989.729 50.9597 988.686 49.9173 987.383 49.396C986.08 48.6142 984.516 48.3536 982.953 48.3536C981.389 48.3536 980.086 48.6142 978.783 49.396C977.48 50.1779 976.959 51.2203 976.959 52.2628C976.959 53.3053 977.48 54.0871 978.262 54.6084C979.044 55.1296 980.347 55.6508 982.171 56.1721L986.601 57.2145C989.468 57.9964 991.814 59.0389 993.117 60.6026C994.681 62.1663 995.202 63.9906 995.202 66.0755C995.202 67.8999 994.681 69.4636 993.638 70.7666C992.596 72.0697 991.293 73.3728 989.468 74.1547C987.644 74.9365 985.559 75.4578 983.474 75.4578C980.347 75.7184 977.74 74.9365 975.656 73.3728Z" fill="#656C73"/>
<path d="M151.323 108.817H155.754L164.093 130.448H164.354L172.694 108.817H177.124V135.139H173.997V118.46L174.258 113.508H173.997L165.397 135.4H162.79L154.19 113.508H153.929L154.19 118.46V135.139H151.063V108.817H151.323Z" fill="#656C73"/>
<path d="M184.422 135.139C183.379 134.618 182.597 133.836 181.816 133.054C181.294 132.012 181.034 130.969 181.034 129.927C181.034 128.102 181.816 126.539 183.119 125.496C184.682 124.454 186.507 123.932 188.852 123.932C189.895 123.932 190.937 123.932 191.98 124.193C192.761 124.454 193.543 124.714 194.065 124.975V123.932C194.065 123.151 193.804 122.369 193.283 121.587C192.761 120.805 192.24 120.284 191.458 120.023C190.677 119.763 189.895 119.502 189.113 119.502C187.028 119.502 185.464 120.284 184.422 122.108L181.816 120.284C182.597 119.241 183.64 118.199 184.943 117.678C186.246 117.156 187.549 116.635 189.113 116.635C191.719 116.635 193.543 117.417 195.107 118.72C196.671 120.023 197.192 121.848 197.192 124.193V135.66H194.325V133.054H194.065C193.543 134.097 192.761 134.878 191.719 135.4C190.677 135.921 189.634 136.442 188.331 136.442C186.767 135.921 185.464 135.66 184.422 135.139ZM190.937 132.272C191.719 131.751 192.501 130.969 193.022 130.187C193.543 129.405 193.804 128.363 193.804 127.321C192.501 126.539 190.937 126.017 189.113 126.017C187.549 126.017 186.246 126.278 185.464 127.06C184.422 127.842 184.161 128.624 184.161 129.666C184.161 130.709 184.682 131.49 185.464 132.012C186.246 132.533 187.288 133.054 188.331 133.054C189.113 133.054 190.155 132.793 190.937 132.272Z" fill="#656C73"/>
<path d="M201.362 116.896H204.228V119.763H204.489C204.75 118.72 205.532 117.938 206.574 117.156C207.617 116.375 208.659 116.114 209.701 116.114C210.483 116.114 211.265 116.114 211.786 116.375V119.763C211.005 119.502 210.223 119.241 209.18 119.241C208.398 119.241 207.616 119.502 206.835 120.023C206.053 120.544 205.532 121.326 205.01 122.108C204.489 122.89 204.228 123.932 204.228 124.714V134.878H201.101V116.896H201.362Z" fill="#656C73"/>
<path d="M224.035 108.817H233.678C234.981 108.817 236.284 109.077 237.327 109.859C238.369 110.641 239.412 111.423 240.194 112.465C240.976 113.508 241.236 114.811 241.236 116.114C241.236 117.417 240.976 118.46 240.194 119.502C239.412 120.544 238.63 121.326 237.587 121.587C238.891 122.108 239.933 122.89 240.976 123.932C241.757 124.975 242.279 126.278 242.279 127.842C242.279 129.405 242.018 130.448 241.236 131.751C240.454 132.793 239.412 133.836 238.369 134.357C237.066 134.878 235.763 135.4 234.46 135.4H224.557V108.817H224.035ZM233.418 120.284C234.199 120.284 234.981 120.023 235.763 119.763C236.545 119.241 237.066 118.72 237.327 118.199C237.587 117.678 237.848 116.896 237.848 116.114C237.848 115.332 237.587 114.811 237.327 114.029C237.066 113.508 236.545 112.726 235.763 112.465C234.981 111.944 234.46 111.944 233.418 111.944H227.163V120.284H233.418ZM234.199 132.272C234.981 132.272 236.024 132.012 236.545 131.49C237.327 130.969 237.848 130.448 238.109 129.666C238.369 128.884 238.63 128.363 238.63 127.581C238.63 126.799 238.369 126.017 238.109 125.496C237.848 124.714 237.066 124.193 236.545 123.672C236.024 123.151 234.981 123.151 233.939 123.151H227.163V132.272H234.199Z" fill="#656C73"/>
<path d="M248.012 135.139C246.97 134.618 246.188 133.836 245.406 133.054C244.885 132.012 244.624 130.969 244.624 129.927C244.624 128.102 245.406 126.539 246.709 125.496C248.273 124.454 250.097 123.932 252.443 123.932C253.485 123.932 254.528 123.932 255.57 124.193C256.352 124.454 257.134 124.714 257.655 124.975V123.932C257.655 123.151 257.395 122.369 256.873 121.587C256.352 120.805 255.831 120.284 255.049 120.023C254.267 119.763 253.485 119.502 252.703 119.502C250.618 119.502 249.055 120.284 248.012 122.108L245.406 120.284C246.188 119.241 247.23 118.199 248.534 117.678C249.837 117.156 251.14 116.635 252.703 116.635C255.31 116.635 257.134 117.417 258.698 118.72C260.261 120.023 260.783 121.848 260.783 124.193V135.66H257.916V133.054H257.655C257.134 134.097 256.352 134.878 255.31 135.4C254.267 135.921 253.225 136.442 251.922 136.442C250.618 136.442 249.055 135.66 248.012 135.139ZM254.528 132.272C255.31 131.751 256.091 130.969 256.613 130.187C257.134 129.405 257.395 128.363 257.395 127.321C256.091 126.539 254.528 126.017 252.703 126.017C251.14 126.017 249.837 126.278 249.055 127.06C248.012 127.842 247.752 128.624 247.752 129.666C247.752 130.709 248.273 131.49 249.055 132.012C249.837 132.533 250.879 133.054 251.922 133.054C252.703 133.054 253.746 132.793 254.528 132.272Z" fill="#656C73"/>
<path d="M266.255 134.357C264.952 133.315 263.91 132.272 263.389 130.708L266.255 129.405C266.777 130.448 267.559 131.49 268.34 132.012C269.122 132.533 270.165 133.054 271.207 133.054C272.51 133.054 273.292 132.793 274.074 132.272C274.856 131.751 275.116 131.23 275.116 130.448C275.116 129.666 274.856 129.145 274.335 128.623C273.813 128.102 272.771 127.842 271.468 127.32L268.862 126.799C267.559 126.539 266.255 126.017 265.213 124.975C264.171 124.193 263.649 123.151 263.649 121.587C263.649 120.544 263.91 119.502 264.692 118.72C265.213 117.938 266.255 117.417 267.298 116.896C268.34 116.374 269.643 116.374 270.947 116.374C272.51 116.374 274.074 116.635 275.116 117.417C276.42 118.199 277.201 119.241 277.983 120.544L275.116 121.847C274.595 121.066 274.074 120.284 273.292 119.762C272.51 119.241 271.728 119.241 270.686 119.241C269.643 119.241 268.862 119.502 268.08 120.023C267.298 120.544 267.037 121.066 267.037 121.847C267.037 122.369 267.298 122.89 267.819 123.411C268.34 123.932 269.122 124.193 270.165 124.454L272.771 125.235C274.595 125.757 275.898 126.278 276.941 127.32C277.723 128.363 278.244 129.405 278.244 130.708C278.244 131.751 277.983 132.793 277.201 133.575C276.68 134.357 275.638 135.139 274.595 135.66C273.553 136.181 272.25 136.442 270.947 136.442C269.122 135.921 267.559 135.4 266.255 134.357Z" fill="#656C73"/>
<path d="M285.28 134.618C283.977 133.836 282.674 132.533 281.892 131.23C281.111 129.927 280.589 128.102 280.589 126.278C280.589 124.454 280.85 122.89 281.632 121.326C282.414 119.762 283.456 118.72 284.759 117.678C286.062 116.896 287.626 116.374 289.45 116.374C291.275 116.374 292.838 116.896 294.141 117.678C295.445 118.459 296.487 119.502 297.269 121.066C298.051 122.629 298.311 124.193 298.311 126.017C298.311 126.278 298.311 126.539 298.311 126.799H283.717C283.717 128.102 283.977 129.405 284.759 130.187C285.28 131.23 286.062 131.751 287.105 132.272C288.147 132.793 288.929 133.054 289.972 133.054C292.317 133.054 294.141 132.012 295.445 129.666L298.311 130.969C297.529 132.533 296.487 133.575 294.923 134.618C293.36 135.66 291.796 135.921 289.972 135.921C288.408 135.921 286.844 135.4 285.28 134.618ZM295.445 123.932C295.445 123.151 295.184 122.369 294.923 121.847C294.663 121.066 293.881 120.544 293.099 120.023C292.317 119.502 291.275 119.241 289.972 119.241C288.668 119.241 287.365 119.762 286.323 120.544C285.28 121.326 284.759 122.629 284.499 124.193H295.445V123.932Z" fill="#656C73"/>
<path d="M302.221 108.817H305.348V135.139H302.221V108.817Z" fill="#656C73"/>
<path d="M310.3 112.465C309.779 111.944 309.518 111.423 309.518 110.902C309.518 110.38 309.779 109.859 310.3 109.338C310.821 108.817 311.342 108.556 311.864 108.556C312.385 108.556 312.906 108.817 313.427 109.338C313.949 109.859 314.209 110.38 314.209 110.902C314.209 111.423 313.949 111.944 313.688 112.465C313.167 112.986 312.645 113.247 312.124 113.247C311.082 112.986 310.561 112.726 310.3 112.465ZM310.3 116.896H313.427V135.139H310.3V116.896Z" fill="#656C73"/>
<path d="M321.506 134.618C320.203 133.836 318.9 132.533 318.118 131.23C317.336 129.666 316.815 128.102 316.815 126.278C316.815 124.454 317.336 122.89 318.118 121.326C318.9 119.763 319.943 118.72 321.506 117.938C323.07 117.156 324.634 116.635 326.458 116.635C328.282 116.635 329.846 117.156 331.41 117.938C332.973 118.72 334.016 120.023 334.798 121.326C335.58 122.629 336.101 124.454 336.101 126.278C336.101 128.102 335.58 129.666 334.798 131.23C334.016 132.793 332.973 133.836 331.41 134.618C329.846 135.4 328.282 135.921 326.458 135.921C324.634 135.921 322.809 135.4 321.506 134.618ZM329.325 132.012C330.367 131.49 331.149 130.709 331.67 129.666C332.192 128.624 332.452 127.321 332.452 126.017C332.452 124.714 332.192 123.411 331.67 122.369C331.149 121.326 330.367 120.544 329.325 120.023C328.282 119.502 327.24 119.241 326.197 119.241C325.155 119.241 324.112 119.502 323.07 120.023C322.028 120.544 321.246 121.326 320.724 122.369C320.203 123.411 319.943 124.714 319.943 126.017C319.943 127.321 320.203 128.624 320.724 129.666C321.246 130.709 322.028 131.49 323.07 132.012C324.112 132.533 325.155 132.793 326.197 132.793C327.5 133.054 328.543 132.793 329.325 132.012Z" fill="#656C73"/>
<path d="M340.531 134.357C339.228 133.315 338.186 132.272 337.665 130.708L340.531 129.405C341.053 130.448 341.834 131.49 342.616 132.012C343.398 132.533 344.441 133.054 345.483 133.054C346.786 133.054 347.568 132.793 348.35 132.272C349.132 131.751 349.392 131.23 349.392 130.448C349.392 129.666 349.132 129.145 348.611 128.623C348.089 128.102 347.047 127.842 345.744 127.32L343.138 126.799C341.834 126.539 340.531 126.017 339.489 124.975C338.446 124.193 337.925 123.151 337.925 121.587C337.925 120.544 338.186 119.502 338.968 118.72C339.749 117.938 340.531 117.417 341.574 116.896C342.616 116.374 343.919 116.374 345.222 116.374C346.786 116.374 348.35 116.635 349.392 117.417C350.695 118.199 351.477 119.241 352.259 120.544L349.653 121.587C349.132 120.805 348.611 120.023 347.829 119.502C347.047 118.981 346.265 118.981 345.222 118.981C344.18 118.981 343.398 119.241 342.616 119.762C341.834 120.284 341.574 120.805 341.574 121.587C341.574 122.108 341.834 122.629 342.356 123.151C342.877 123.672 343.659 123.932 344.701 124.193L347.307 124.975C349.132 125.496 350.435 126.017 351.477 127.06C352.259 128.102 352.78 129.145 352.78 130.448C352.78 131.49 352.52 132.533 351.738 133.315C351.217 134.096 350.174 134.878 349.132 135.4C348.089 135.921 346.786 136.181 345.483 136.181C343.659 135.921 341.834 135.4 340.531 134.357Z" fill="#656C73"/>
<path d="M369.981 134.097C367.896 132.793 366.333 131.23 365.03 129.145C363.726 127.06 363.205 124.714 363.205 122.108C363.205 119.502 363.726 117.156 365.03 115.071C366.333 112.987 367.896 111.423 369.981 110.12C372.066 108.817 374.412 108.295 377.018 108.295C379.103 108.295 380.927 108.556 382.491 109.338C384.055 110.12 385.618 111.162 386.661 112.465L384.576 114.55C383.533 113.247 382.491 112.465 381.188 111.944C379.885 111.423 378.582 111.162 377.018 111.162C375.194 111.162 373.369 111.683 371.806 112.465C370.242 113.247 368.939 114.55 367.896 116.375C366.854 118.199 366.593 120.023 366.593 122.108C366.593 124.193 367.114 126.017 367.896 127.842C368.939 129.405 370.242 130.708 371.806 131.751C373.369 132.533 375.194 133.054 377.018 133.054C380.145 133.054 383.012 131.751 385.097 129.145L387.443 131.23C386.14 132.793 384.836 133.836 383.012 134.618C381.188 135.4 379.363 135.921 377.018 135.921C374.412 135.921 372.066 135.139 369.981 134.097Z" fill="#656C73"/>
<path d="M393.958 134.618C392.655 133.836 391.352 132.533 390.57 131.23C389.788 129.666 389.267 128.102 389.267 126.278C389.267 124.454 389.788 122.89 390.57 121.326C391.352 119.763 392.394 118.72 393.958 117.938C395.522 117.156 397.085 116.635 398.91 116.635C400.734 116.635 402.298 117.156 403.861 117.938C405.425 118.72 406.468 120.023 407.249 121.326C408.031 122.629 408.553 124.454 408.553 126.278C408.553 128.102 408.031 129.666 407.249 131.23C406.468 132.793 405.425 133.836 403.861 134.618C402.298 135.4 400.734 135.921 398.91 135.921C397.085 135.921 395.261 135.4 393.958 134.618ZM401.776 132.012C402.819 131.49 403.601 130.709 404.122 129.666C404.643 128.624 404.904 127.321 404.904 126.017C404.904 124.714 404.643 123.411 404.122 122.369C403.601 121.326 402.819 120.544 401.776 120.023C400.734 119.502 399.692 119.241 398.649 119.241C397.607 119.241 396.564 119.502 395.522 120.023C394.479 120.544 393.697 121.326 393.176 122.369C392.655 123.411 392.394 124.714 392.394 126.017C392.394 127.321 392.655 128.624 393.176 129.666C393.697 130.709 394.479 131.49 395.522 132.012C396.564 132.533 397.607 132.793 398.649 132.793C399.952 133.054 400.995 132.793 401.776 132.012Z" fill="#656C73"/>
<path d="M411.419 108.817H414.547V135.139H411.419V108.817Z" fill="#656C73"/>
<path d="M419.238 108.817H422.365V135.139H419.238V108.817Z" fill="#656C73"/>
<path d="M430.184 134.618C428.881 133.836 427.578 132.533 426.796 131.23C426.014 129.927 425.493 128.102 425.493 126.278C425.493 124.454 425.753 122.89 426.535 121.326C427.317 119.762 428.359 118.72 429.663 117.678C430.966 116.896 432.529 116.374 434.354 116.374C436.178 116.374 437.742 116.896 439.045 117.678C440.348 118.459 441.39 119.502 442.172 121.066C442.954 122.629 443.215 124.193 443.215 126.017C443.215 126.278 443.215 126.539 443.215 126.799H428.62C428.62 128.102 428.881 129.405 429.663 130.187C430.184 131.23 430.966 131.751 432.008 132.272C433.051 132.793 433.832 133.054 434.875 133.054C437.22 133.054 439.045 132.012 440.348 129.666L443.215 130.969C442.433 132.533 441.39 133.575 439.827 134.618C438.524 135.4 436.699 135.921 434.875 135.921C433.051 135.921 431.487 135.4 430.184 134.618ZM440.087 123.932C440.087 123.151 439.827 122.369 439.566 121.847C439.305 121.066 438.524 120.544 437.742 120.023C436.96 119.502 435.917 119.241 434.614 119.241C433.311 119.241 432.008 119.762 430.966 120.544C429.923 121.326 429.402 122.629 429.141 124.193H440.087V123.932Z" fill="#656C73"/>
<path d="M449.73 142.176C448.427 141.133 447.385 139.83 446.863 138.527L449.73 137.224C449.991 138.266 450.773 139.309 451.815 139.83C452.857 140.351 453.9 140.873 455.203 140.873C457.027 140.873 458.591 140.351 459.634 139.309C460.676 138.266 461.197 136.703 461.197 134.618V132.793H460.937C460.415 133.836 459.373 134.618 458.33 135.139C457.288 135.66 455.985 136.181 454.682 136.181C453.118 136.181 451.815 135.66 450.251 134.878C448.948 134.096 447.906 132.793 447.124 131.49C446.342 129.927 445.821 128.363 445.821 126.539C445.821 124.714 446.342 123.151 447.124 121.587C447.906 120.023 448.948 118.981 450.251 118.199C451.554 117.417 453.118 116.896 454.682 116.896C455.985 116.896 457.288 117.156 458.33 117.938C459.373 118.459 460.415 119.241 460.937 120.284H461.197V117.678H464.064V134.618C464.064 136.703 463.543 138.266 462.761 139.83C461.979 141.394 460.937 142.176 459.634 142.957C458.33 143.739 456.767 144 454.942 144C453.118 143.739 451.294 143.218 449.73 142.176ZM458.33 132.272C459.112 131.751 459.894 130.969 460.415 129.927C460.937 128.884 461.197 127.581 461.197 126.278C461.197 124.975 460.937 123.672 460.415 122.629C459.894 121.587 459.112 120.805 458.33 120.284C457.549 119.763 456.506 119.502 455.464 119.502C454.421 119.502 453.379 119.763 452.597 120.284C451.815 120.805 451.033 121.587 450.512 122.629C449.991 123.672 449.73 124.975 449.73 126.278C449.73 127.581 449.991 128.884 450.512 129.927C451.033 130.969 451.815 131.751 452.597 132.272C453.379 132.793 454.421 133.054 455.464 133.054C456.506 133.054 457.549 132.793 458.33 132.272Z" fill="#656C73"/>
<path d="M472.143 134.618C470.84 133.836 469.537 132.533 468.755 131.23C467.973 129.927 467.452 128.102 467.452 126.278C467.452 124.454 467.713 122.89 468.495 121.326C469.276 119.762 470.319 118.72 471.622 117.678C472.925 116.896 474.489 116.374 476.313 116.374C478.137 116.374 479.701 116.896 481.004 117.678C482.307 118.459 483.35 119.502 484.132 121.066C484.913 122.629 485.174 124.193 485.174 126.017C485.174 126.278 485.174 126.539 485.174 126.799H470.579C470.579 128.102 470.84 129.405 471.622 130.187C472.143 131.23 472.925 131.751 473.967 132.272C475.01 132.793 475.792 133.054 476.834 133.054C479.18 133.054 481.004 132.012 482.307 129.666L485.174 130.969C484.392 132.533 483.35 133.575 481.786 134.618C480.483 135.4 478.659 135.921 476.834 135.921C475.01 135.921 473.446 135.4 472.143 134.618ZM482.047 123.932C482.047 123.151 481.786 122.369 481.525 121.847C481.265 121.066 480.483 120.544 479.701 120.023C478.919 119.502 477.877 119.241 476.574 119.241C475.271 119.241 473.967 119.762 472.925 120.544C471.883 121.326 471.361 122.629 471.101 124.193H482.047V123.932Z" fill="#656C73"/>
<path d="M501.072 134.618C499.769 133.836 498.466 132.533 497.684 131.23C496.902 129.666 496.381 128.102 496.381 126.278C496.381 124.454 496.902 122.89 497.684 121.326C498.466 119.763 499.508 118.72 501.072 117.938C502.636 117.156 504.199 116.635 506.024 116.635C507.848 116.635 509.412 117.156 510.975 117.938C512.539 118.72 513.581 120.023 514.363 121.326C515.145 122.629 515.666 124.454 515.666 126.278C515.666 128.102 515.145 129.666 514.363 131.23C513.581 132.793 512.539 133.836 510.975 134.618C509.412 135.4 507.848 135.921 506.024 135.921C504.199 135.921 502.375 135.4 501.072 134.618ZM508.89 132.012C509.933 131.49 510.715 130.709 511.236 129.666C511.757 128.624 512.018 127.321 512.018 126.017C512.018 124.714 511.757 123.411 511.236 122.369C510.715 121.326 509.933 120.544 508.89 120.023C507.848 119.502 506.805 119.241 505.763 119.241C504.72 119.241 503.678 119.502 502.636 120.023C501.593 120.544 500.811 121.326 500.29 122.369C499.769 123.411 499.508 124.714 499.508 126.017C499.508 127.321 499.769 128.624 500.29 129.666C500.811 130.709 501.593 131.49 502.636 132.012C503.678 132.533 504.72 132.793 505.763 132.793C507.066 133.054 508.109 132.793 508.89 132.012Z" fill="#656C73"/>
<path d="M520.357 119.763H516.969V116.896H520.357V114.29C520.357 112.987 520.618 112.205 521.139 111.162C521.66 110.38 522.442 109.598 523.224 109.077C524.006 108.556 525.049 108.295 526.352 108.295C526.873 108.295 527.394 108.295 527.915 108.295C528.437 108.295 528.697 108.556 529.218 108.556V111.683C528.437 111.162 527.655 111.162 526.612 111.162C525.83 111.162 525.049 111.423 524.527 111.944C524.006 112.465 523.745 113.247 523.745 114.29V116.375H528.437V119.241H523.745V134.618H520.618V119.763H520.357Z" fill="#656C73"/>
<path d="M541.207 108.817H556.583V111.683H544.334V120.544H555.28V123.411H544.334V132.272H556.583V135.139H541.207V108.817Z" fill="#656C73"/>
<path d="M560.492 116.896H563.359V119.502H563.62C564.141 118.459 564.923 117.678 565.965 117.156C567.008 116.635 568.311 116.114 569.614 116.114C571.959 116.114 573.523 116.896 574.826 118.199C575.869 119.502 576.651 121.326 576.651 123.672V135.139H573.523V124.193C573.523 120.805 571.96 119.241 568.832 119.241C567.79 119.241 567.008 119.502 566.226 120.023C565.444 120.544 564.923 121.326 564.402 122.108C563.88 122.89 563.88 123.932 563.88 124.975V135.139H560.753V116.896H560.492Z" fill="#656C73"/>
<path d="M583.166 142.176C581.863 141.133 580.821 139.83 580.299 138.527L583.166 137.224C583.427 138.266 584.209 139.309 585.251 139.83C586.294 140.612 587.336 140.873 588.639 140.873C590.464 140.873 592.027 140.351 593.07 139.309C594.112 138.266 594.633 136.703 594.633 134.618V132.793C594.112 133.836 593.07 134.618 592.027 135.139C590.985 135.66 589.682 136.181 588.379 136.181C586.815 136.181 585.512 135.66 583.948 134.878C582.645 134.096 581.603 132.793 580.821 131.49C580.039 129.927 579.518 128.363 579.518 126.539C579.518 124.714 580.039 123.151 580.821 121.587C581.603 120.023 582.645 118.981 583.948 118.199C585.251 117.417 586.815 116.896 588.379 116.896C589.682 116.896 590.985 117.156 592.027 117.938C593.07 118.459 594.112 119.241 594.633 120.284H594.894V117.678H597.761V134.618C597.761 136.703 597.24 138.266 596.458 139.83C595.676 141.394 594.633 142.176 593.33 142.957C592.027 143.739 590.464 144 588.639 144C586.554 143.739 584.73 143.218 583.166 142.176ZM591.767 132.272C592.548 131.751 593.33 130.969 593.852 129.927C594.373 128.884 594.633 127.581 594.633 126.278C594.633 124.975 594.373 123.672 593.852 122.629C593.33 121.587 592.548 120.805 591.767 120.284C590.985 119.763 589.942 119.502 588.9 119.502C587.857 119.502 586.815 119.763 586.033 120.284C585.251 120.805 584.469 121.587 583.948 122.629C583.427 123.672 583.166 124.975 583.166 126.278C583.166 127.581 583.427 128.884 583.948 129.927C584.469 130.969 585.251 131.751 586.033 132.272C586.815 132.793 587.857 133.054 588.9 133.054C589.942 133.054 590.724 132.793 591.767 132.272Z" fill="#656C73"/>
<path d="M602.712 112.465C602.191 111.944 601.93 111.423 601.93 110.902C601.93 110.38 602.191 109.859 602.712 109.338C603.234 108.817 603.755 108.556 604.276 108.556C604.797 108.556 605.318 108.817 605.84 109.338C606.361 109.859 606.622 110.38 606.622 110.902C606.622 111.423 606.361 111.944 606.1 112.465C605.579 112.986 605.058 113.247 604.537 113.247C603.494 112.986 602.973 112.726 602.712 112.465ZM602.712 116.896H605.84V135.139H602.712V116.896Z" fill="#656C73"/>
<path d="M610.531 116.896H613.398V119.502H613.659C614.18 118.459 614.962 117.678 616.004 117.156C617.047 116.635 618.35 116.114 619.653 116.114C621.998 116.114 623.562 116.896 624.865 118.199C625.908 119.502 626.689 121.326 626.689 123.672V135.139H623.562V124.193C623.562 120.805 621.998 119.241 618.871 119.241C617.828 119.241 617.047 119.502 616.265 120.023C615.483 120.544 614.962 121.326 614.44 122.108C613.919 122.89 613.919 123.932 613.919 124.975V135.139H610.792V116.896H610.531Z" fill="#656C73"/>
<path d="M634.508 134.618C633.205 133.836 631.902 132.533 631.12 131.23C630.338 129.927 629.817 128.102 629.817 126.278C629.817 124.454 630.077 122.89 630.859 121.326C631.641 119.762 632.683 118.72 633.987 117.678C635.29 116.896 636.853 116.374 638.678 116.374C640.502 116.374 642.066 116.896 643.369 117.678C644.672 118.459 645.714 119.502 646.496 121.066C647.278 122.629 647.539 124.193 647.539 126.017C647.539 126.278 647.539 126.539 647.539 126.799H632.944C632.944 128.102 633.205 129.405 633.987 130.187C634.508 131.23 635.29 131.751 636.332 132.272C637.375 132.793 638.156 133.054 639.199 133.054C641.544 133.054 643.369 132.012 644.672 129.666L647.539 130.969C646.757 132.533 645.714 133.575 644.151 134.618C642.848 135.4 641.023 135.921 639.199 135.921C637.375 135.921 635.811 135.4 634.508 134.618ZM644.411 123.932C644.411 123.151 644.151 122.369 643.89 121.847C643.629 121.066 642.848 120.544 642.066 120.023C641.284 119.502 640.241 119.241 638.938 119.241C637.635 119.241 636.332 119.762 635.29 120.544C634.247 121.326 633.726 122.629 633.465 124.193H644.411V123.932Z" fill="#656C73"/>
<path d="M654.836 134.618C653.533 133.836 652.23 132.533 651.448 131.23C650.666 129.927 650.145 128.102 650.145 126.278C650.145 124.454 650.405 122.89 651.187 121.326C651.969 119.762 653.011 118.72 654.315 117.678C655.618 116.896 657.181 116.374 659.006 116.374C660.83 116.374 662.394 116.896 663.697 117.678C665 118.459 666.042 119.502 666.824 121.066C667.606 122.629 667.867 124.193 667.867 126.017C667.867 126.278 667.867 126.539 667.867 126.799H653.272C653.272 128.102 653.533 129.405 654.315 130.187C654.836 131.23 655.618 131.751 656.66 132.272C657.703 132.793 658.484 133.054 659.527 133.054C661.872 133.054 663.697 132.012 665 129.666L667.867 130.969C667.085 132.533 666.042 133.575 664.479 134.618C662.915 135.66 661.351 135.921 659.527 135.921C657.963 135.921 656.399 135.4 654.836 134.618ZM665 123.932C665 123.151 664.739 122.369 664.479 121.847C664.218 121.066 663.436 120.544 662.654 120.023C661.872 119.502 660.83 119.241 659.527 119.241C658.224 119.241 656.921 119.762 655.878 120.544C654.836 121.326 654.315 122.629 654.054 124.193H665V123.932Z" fill="#656C73"/>
<path d="M671.776 116.896H674.643V119.763H674.904C675.164 118.72 675.946 117.938 676.989 117.156C678.031 116.375 679.073 116.114 680.116 116.114C680.898 116.114 681.68 116.114 682.201 116.375V119.763C681.419 119.502 680.637 119.241 679.595 119.241C678.813 119.241 678.031 119.502 677.249 120.023C676.467 120.544 675.946 121.326 675.425 122.108C674.904 122.89 674.643 123.932 674.643 124.714V134.878H671.516V116.896H671.776Z" fill="#656C73"/>
<path d="M685.589 112.465C685.068 111.944 684.807 111.423 684.807 110.902C684.807 110.38 685.068 109.859 685.589 109.338C686.11 108.817 686.631 108.556 687.153 108.556C687.674 108.556 688.195 108.817 688.716 109.338C689.238 109.859 689.498 110.38 689.498 110.902C689.498 111.423 689.238 111.944 688.977 112.465C688.716 112.986 687.935 113.247 687.413 113.247C686.371 112.986 685.85 112.726 685.589 112.465ZM685.589 116.896H688.716V135.139H685.589V116.896Z" fill="#656C73"/>
<path d="M693.407 116.896H696.274V119.502H696.535C697.056 118.459 697.838 117.678 698.88 117.156C699.923 116.635 701.226 116.114 702.529 116.114C704.874 116.114 706.438 116.896 707.741 118.199C709.044 119.502 709.566 121.326 709.566 123.672V135.139H706.438V124.193C706.438 120.805 704.874 119.241 701.747 119.241C700.705 119.241 699.923 119.502 699.141 120.023C698.359 120.544 697.838 121.326 697.316 122.108C696.795 122.89 696.795 123.932 696.795 124.975V135.139H693.668V116.896H693.407Z" fill="#656C73"/>
<path d="M716.342 142.176C715.039 141.133 713.996 139.83 713.475 138.527L716.342 137.224C716.602 138.266 717.384 139.309 718.427 139.83C719.469 140.351 720.511 140.873 721.815 140.873C723.639 140.873 725.203 140.351 726.245 139.309C727.288 138.266 727.809 136.703 727.809 134.618V132.793H727.548C727.027 133.836 725.984 134.618 724.942 135.139C723.9 135.66 722.596 136.181 721.293 136.181C719.73 136.181 718.427 135.66 716.863 134.878C715.56 134.096 714.517 132.793 713.735 131.49C712.954 129.927 712.432 128.363 712.432 126.539C712.432 124.714 712.954 123.151 713.735 121.587C714.517 120.023 715.56 118.981 716.863 118.199C718.166 117.417 719.73 116.896 721.293 116.896C722.596 116.896 723.9 117.156 724.942 117.938C725.984 118.459 727.027 119.241 727.548 120.284H727.809V117.678H730.676V134.618C730.676 136.703 730.154 138.266 729.372 139.83C728.591 141.394 727.548 142.176 726.245 142.957C724.942 143.739 723.378 144 721.554 144C719.469 143.739 717.645 143.218 716.342 142.176ZM724.942 132.272C725.724 131.751 726.506 130.969 727.027 129.927C727.548 128.884 727.809 127.581 727.809 126.278C727.809 124.975 727.548 123.672 727.027 122.629C726.506 121.587 725.724 120.805 724.942 120.284C724.16 119.763 723.118 119.502 722.075 119.502C721.033 119.502 719.99 119.763 719.208 120.284C718.427 120.805 717.645 121.587 717.123 122.629C716.602 123.672 716.342 124.975 716.342 126.278C716.342 127.581 716.602 128.884 717.123 129.927C717.645 130.969 718.427 131.751 719.208 132.272C719.99 132.793 721.033 133.054 722.075 133.054C723.118 133.054 723.9 132.793 724.942 132.272Z" fill="#656C73"/>
<path d="M746.312 135.139C745.27 134.618 744.488 133.836 743.706 133.054C743.185 132.012 742.924 130.969 742.924 129.927C742.924 128.102 743.706 126.539 745.009 125.496C746.573 124.454 748.397 123.932 750.743 123.932C751.785 123.932 752.828 123.932 753.87 124.193C754.652 124.454 755.434 124.714 755.955 124.975V123.932C755.955 123.151 755.695 122.369 755.173 121.587C754.652 120.805 754.131 120.284 753.349 120.023C752.567 119.763 751.785 119.502 751.003 119.502C748.919 119.502 747.355 120.284 746.312 122.108L743.706 120.284C744.488 119.241 745.53 118.199 746.834 117.678C748.137 117.156 749.44 116.635 751.003 116.635C753.61 116.635 755.434 117.417 756.998 118.72C758.561 120.023 759.083 121.848 759.083 124.193V135.66H756.216V133.054H755.955C755.434 134.097 754.652 134.878 753.61 135.4C752.567 135.921 751.525 136.442 750.222 136.442C748.919 136.442 747.355 135.66 746.312 135.139ZM753.088 132.272C753.87 131.751 754.652 130.969 755.173 130.187C755.695 129.405 755.955 128.363 755.955 127.321C754.652 126.539 753.088 126.017 751.264 126.017C749.7 126.017 748.397 126.278 747.615 127.06C746.573 127.842 746.312 128.624 746.312 129.666C746.312 130.709 746.834 131.49 747.615 132.012C748.397 132.533 749.44 133.054 750.482 133.054C751.264 133.054 752.046 132.793 753.088 132.272Z" fill="#656C73"/>
<path d="M763.253 116.896H766.119V119.502H766.38C766.901 118.459 767.683 117.678 768.726 117.156C769.768 116.635 771.071 116.114 772.374 116.114C774.72 116.114 776.284 116.896 777.587 118.199C778.89 119.502 779.411 121.326 779.411 123.672V135.139H776.284V124.193C776.284 120.805 774.72 119.241 771.592 119.241C770.55 119.241 769.768 119.502 768.986 120.023C768.204 120.544 767.683 121.326 767.162 122.108C766.641 122.89 766.641 123.932 766.641 124.975V135.139H763.513V116.896H763.253Z" fill="#656C73"/>
<path d="M786.969 134.618C785.666 133.836 784.623 132.533 783.841 131.23C783.06 129.666 782.538 128.102 782.538 126.278C782.538 124.454 783.06 122.89 783.841 121.326C784.623 119.763 785.666 118.72 786.969 117.938C788.272 117.156 789.836 116.635 791.399 116.635C792.702 116.635 794.005 116.896 795.309 117.678C796.351 118.199 797.394 118.981 797.915 120.023H798.175L797.915 117.417V109.077H801.042V135.4H797.915V132.793H797.654C797.133 133.836 796.351 134.618 795.048 135.139C794.005 135.66 792.702 136.181 791.139 136.181C789.836 135.921 788.272 135.4 786.969 134.618ZM794.787 132.272C795.83 131.751 796.351 130.969 796.872 129.927C797.394 128.884 797.654 127.581 797.654 126.278C797.654 124.975 797.394 123.672 796.872 122.629C796.351 121.587 795.569 120.805 794.787 120.284C793.745 119.763 792.963 119.502 791.66 119.502C790.357 119.502 789.575 119.763 788.532 120.284C787.49 120.805 786.969 121.587 786.448 122.629C785.926 123.672 785.666 124.975 785.666 126.278C785.666 127.581 785.926 128.884 786.448 129.927C786.969 130.969 787.751 131.751 788.532 132.272C789.575 132.793 790.357 133.054 791.66 133.054C792.963 133.054 794.005 132.793 794.787 132.272Z" fill="#656C73"/>
<path d="M818.504 111.683H811.207V108.817H829.189V111.683H821.892V135.139H818.764V111.683H818.504Z" fill="#656C73"/>
<path d="M832.838 134.618C831.534 133.836 830.231 132.533 829.45 131.23C828.668 129.927 828.146 128.102 828.146 126.278C828.146 124.454 828.407 122.89 829.189 121.326C829.971 119.762 831.013 118.72 832.316 117.678C833.619 116.896 835.183 116.374 837.007 116.374C838.832 116.374 840.395 116.896 841.699 117.678C843.002 118.459 844.044 119.502 844.826 121.066C845.608 122.629 845.868 124.193 845.868 126.017C845.868 126.278 845.868 126.539 845.868 126.799H831.274C831.274 128.102 831.535 129.405 832.316 130.187C832.838 131.23 833.619 131.751 834.662 132.272C835.704 132.793 836.486 133.054 837.529 133.054C839.874 133.054 841.699 132.012 843.002 129.666L845.868 130.969C845.087 132.533 844.044 133.575 842.48 134.618C841.177 135.4 839.353 135.921 837.529 135.921C835.704 135.921 834.141 135.4 832.838 134.618ZM842.741 123.932C842.741 123.151 842.48 122.369 842.22 121.847C841.959 121.066 841.177 120.544 840.395 120.023C839.614 119.502 838.571 119.241 837.268 119.241C835.965 119.241 834.662 119.762 833.619 120.544C832.577 121.326 832.056 122.629 831.795 124.193H842.741V123.932Z" fill="#656C73"/>
<path d="M853.426 134.618C852.123 133.836 850.82 132.533 850.038 131.23C849.257 129.666 848.735 128.102 848.735 126.278C848.735 124.454 849.257 122.89 850.038 121.326C850.82 119.763 851.863 118.72 853.426 117.938C854.99 117.156 856.554 116.635 858.118 116.635C860.203 116.635 861.766 117.156 863.069 118.199C864.372 119.241 865.415 120.284 865.936 121.848L863.069 123.151C862.027 120.805 860.203 119.502 857.857 119.502C856.814 119.502 855.772 119.763 854.99 120.284C853.948 120.805 853.426 121.587 852.645 122.629C852.123 123.672 851.863 124.975 851.863 126.278C851.863 127.581 852.123 128.884 852.645 129.927C853.166 130.969 853.948 131.751 854.99 132.272C856.033 132.793 856.814 133.054 857.857 133.054C859.16 133.054 860.202 132.793 861.245 132.012C862.287 131.23 862.809 130.448 863.33 129.405L866.197 130.709C865.676 132.272 864.633 133.575 863.33 134.357C862.027 135.139 860.203 135.921 858.378 135.921C856.293 135.921 854.73 135.4 853.426 134.618Z" fill="#656C73"/>
<path d="M869.585 108.817H872.712V117.156L872.452 119.763H872.712C873.233 118.72 874.015 117.938 875.058 117.417C876.1 116.896 877.403 116.375 878.706 116.375C881.052 116.375 882.616 117.156 883.919 118.46C885.222 119.763 885.743 121.587 885.743 123.672V135.139H882.616V124.193C882.616 122.369 882.094 121.326 881.312 120.544C880.531 119.763 879.488 119.241 877.925 119.241C876.882 119.241 876.1 119.502 875.318 120.023C874.536 120.544 874.015 121.326 873.494 122.369C872.973 123.411 872.712 124.193 872.712 125.236V135.139H869.585V108.817Z" fill="#656C73"/>
<path d="M889.913 116.896H892.779V119.502H893.04C893.561 118.459 894.343 117.678 895.386 117.156C896.428 116.635 897.731 116.114 899.034 116.114C901.38 116.114 902.943 116.896 904.247 118.199C905.289 119.502 906.071 121.326 906.071 123.672V135.139H902.943V124.193C902.943 120.805 901.38 119.241 898.252 119.241C897.21 119.241 896.428 119.502 895.646 120.023C894.864 120.544 894.343 121.326 893.822 122.108C893.301 122.89 893.301 123.932 893.301 124.975V135.139H890.173V116.896H889.913Z" fill="#656C73"/>
<path d="M913.89 134.618C912.586 133.836 911.283 132.533 910.502 131.23C909.72 129.666 909.198 128.102 909.198 126.278C909.198 124.454 909.72 122.89 910.502 121.326C911.283 119.763 912.326 118.72 913.89 117.938C915.453 117.156 917.017 116.635 918.841 116.635C920.666 116.635 922.229 117.156 923.793 117.938C925.357 118.72 926.399 120.023 927.181 121.326C927.963 122.629 928.484 124.454 928.484 126.278C928.484 128.102 927.963 129.666 927.181 131.23C926.399 132.793 925.357 133.836 923.793 134.618C922.229 135.4 920.666 135.921 918.841 135.921C917.017 135.921 915.193 135.4 913.89 134.618ZM921.708 132.012C922.751 131.49 923.532 130.709 924.054 129.666C924.575 128.624 924.836 127.321 924.836 126.017C924.836 124.714 924.575 123.411 924.054 122.369C923.532 121.326 922.751 120.544 921.708 120.023C920.666 119.502 919.623 119.241 918.581 119.241C917.538 119.241 916.496 119.502 915.453 120.023C914.411 120.544 913.629 121.326 913.108 122.369C912.587 123.411 912.326 124.714 912.326 126.017C912.326 127.321 912.587 128.624 913.108 129.666C913.629 130.709 914.411 131.49 915.453 132.012C916.496 132.533 917.538 132.793 918.581 132.793C919.884 133.054 920.926 132.793 921.708 132.012Z" fill="#656C73"/>
<path d="M931.351 108.817H934.478V135.139H931.351V108.817Z" fill="#656C73"/>
<path d="M942.557 134.618C941.254 133.836 939.951 132.533 939.169 131.23C938.387 129.666 937.866 128.102 937.866 126.278C937.866 124.454 938.387 122.89 939.169 121.326C939.951 119.763 940.994 118.72 942.557 117.938C944.121 117.156 945.685 116.635 947.509 116.635C949.333 116.635 950.897 117.156 952.461 117.938C954.024 118.72 955.067 120.023 955.849 121.326C956.631 122.629 957.152 124.454 957.152 126.278C957.152 128.102 956.631 129.666 955.849 131.23C955.067 132.793 954.024 133.836 952.461 134.618C950.897 135.4 949.333 135.921 947.509 135.921C945.685 135.921 943.86 135.4 942.557 134.618ZM950.376 132.012C951.418 131.49 952.2 130.709 952.721 129.666C953.243 128.624 953.503 127.321 953.503 126.017C953.503 124.714 953.243 123.411 952.721 122.369C952.2 121.326 951.418 120.544 950.376 120.023C949.333 119.502 948.291 119.241 947.248 119.241C946.206 119.241 945.163 119.502 944.121 120.023C943.079 120.544 942.297 121.326 941.775 122.369C941.254 123.411 940.994 124.714 940.994 126.017C940.994 127.321 941.254 128.624 941.775 129.666C942.297 130.709 943.079 131.49 944.121 132.012C945.163 132.533 946.206 132.793 947.248 132.793C948.291 133.054 949.333 132.793 950.376 132.012Z" fill="#656C73"/>
<path d="M962.886 142.176C961.582 141.133 960.54 139.83 960.019 138.527L962.886 137.224C963.146 138.266 963.928 139.309 964.971 139.83C966.013 140.612 967.055 140.873 968.359 140.873C970.183 140.873 971.747 140.351 972.789 139.309C973.832 138.266 974.353 136.703 974.353 134.618V132.793H974.092C973.571 133.836 972.528 134.618 971.486 135.139C970.444 135.66 969.14 136.181 967.837 136.181C966.274 136.181 964.971 135.66 963.407 134.878C962.104 134.096 961.061 132.793 960.279 131.49C959.498 129.927 958.976 128.363 958.976 126.539C958.976 124.714 959.498 123.151 960.279 121.587C961.061 120.023 962.104 118.981 963.407 118.199C964.71 117.417 966.274 116.896 967.837 116.896C969.14 116.896 970.444 117.156 971.486 117.938C972.528 118.459 973.571 119.241 974.092 120.284H974.353V117.678H977.22V134.618C977.22 136.703 976.698 138.266 975.916 139.83C975.135 141.394 974.092 142.176 972.789 142.957C971.486 143.739 969.922 144 968.098 144C966.013 143.739 964.189 143.218 962.886 142.176ZM971.225 132.272C972.007 131.751 972.789 130.969 973.31 129.927C973.832 128.884 974.092 127.581 974.092 126.278C974.092 124.975 973.832 123.672 973.31 122.629C972.789 121.587 972.007 120.805 971.225 120.284C970.444 119.763 969.401 119.502 968.359 119.502C967.316 119.502 966.274 119.763 965.492 120.284C964.71 120.805 963.928 121.587 963.407 122.629C962.886 123.672 962.625 124.975 962.625 126.278C962.625 127.581 962.886 128.884 963.407 129.927C963.928 130.969 964.71 131.751 965.492 132.272C966.274 132.793 967.316 133.054 968.359 133.054C969.401 133.054 970.444 132.793 971.225 132.272Z" fill="#656C73"/>
<path d="M987.384 134.096L979.826 116.896H983.214L988.947 130.448L994.42 116.896H997.808L986.341 143.218H983.214L987.384 134.096Z" fill="#656C73"/>
</svg>
